<svg xmlns="http://www.w3.org/2000/svg" xml:space="preserve" width="2048" height="2048" style="shape-rendering:geometricPrecision;text-rendering:geometricPrecision;image-rendering:optimizeQuality;fill-rule:evenodd;clip-rule:evenodd"><defs><clipPath id="id0"><path d="M1024 0c565.539 0 1024 458.461 1024 1024s-458.461 1024-1024 1024S0 1589.539 0 1024 458.461 0 1024 0z"/></clipPath><style>.fil1{fill:#303f9f}.fil7{fill:#babab9;fill-rule:nonzero}</style></defs><g id="Layer_x0020_1"><path d="M1024 0c565.539 0 1024 458.461 1024 1024s-458.461 1024-1024 1024S0 1589.539 0 1024 458.461 0 1024 0z" style="fill:#5c6bc0"/><g style="clip-path:url(#id0)"><g id="_474118544"><path id="_3280957441" class="fil1" d="M1443.32 463.999 2579.2 1599.88v22.86L1443.32 486.857z"/><path id="_328095840" class="fil1" d="M1443.32 486.857 2579.2 1622.74v1074.28L1443.32 1561.14z"/><path id="_328096032" class="fil1" d="M1443.32 1561.14 2579.2 2697.02v22.86L1443.32 1584z"/><path id="_328096584" class="fil1" d="M1443.32 1584 2579.2 2719.88h-22.86L1420.46 1584z"/><path id="_328096224" class="fil1" d="m1420.46 1584 1135.88 1135.88h-39.72L1380.74 1584z"/><path id="_328096056" class="fil1" d="m1380.74 1584 1135.88 1135.88h-39.73L1341.01 1584z"/><path id="_328096344" class="fil1" d="m1341.01 1584 1135.88 1135.88h-45.72L1295.29 1584z"/><path id="_328096560" class="fil1" d="m1295.29 1584 1135.88 1135.88h-542.58L752.709 1584z"/><path id="_328096872" class="fil1" d="M752.709 1584 1888.59 2719.88h-45.72L706.993 1584z"/><path id="_328097064" class="fil1" d="M706.993 1584 1842.87 2719.88h-48.7L658.286 1584z"/><path id="_328097208" class="fil1" d="M658.286 1584 1794.17 2719.88h-30.75L627.538 1584z"/><path id="_328097424" class="fil1" d="M627.538 1584 1763.42 2719.88h-22.86L604.68 1584z"/><path id="_474118016" class="fil1" d="M627.538 463.999h815.782V1584H604.68V463.999z"/></g></g><path d="M1024 0c565.539 0 1024 458.461 1024 1024s-458.461 1024-1024 1024S0 1589.539 0 1024 458.461 0 1024 0z" style="fill:none"/><path style="fill:#cfab91" d="M658.286 543.999h722.449v1040H658.286z"/><path style="fill:#fffffe" d="M752.709 612.028h542.581V1584H752.709z"/><path d="M841.144 1053.68c0-9.067-7.128-16.419-15.919-16.419-8.792 0-15.919 7.352-15.919 16.419v91.862c0 9.066 7.127 16.417 15.92 16.417 8.79 0 15.918-7.351 15.918-16.417v-91.862z" style="fill:#455a64"/><path style="fill:#ffd3b3" d="M627.538 463.999h815.782V1584h-102.31V566.313H706.993V1584H604.68V463.999z"/><path class="fil7" d="M988.374 729.09c138.591-22.194 4.313 125.778 30.169 233.007-80.504-63.484 102.474-235.002-30.169-233.007zM1064.23 759.034c103.429-15.732 2.48 93.774 21.124 173.848-59.632-47.789 77.754-174.559-21.124-173.848z"/><path class="fil7" d="M936.388 759.034c103.429-15.732 2.48 93.774 21.125 173.848-59.633-47.789 77.753-174.559-21.125-173.848z"/></g></svg>